<mxfile host="app.diagrams.net" agent="Mozilla/5.0 (X11; Linux x86_64) AppleWebKit/537.36 (KHTML, like Gecko) Chrome/129.0.0.0 Safari/537.36" version="24.7.17">
  <diagram name="PÃ¡gina-1" id="suizvznyGySLpyTkvz7d">
    <mxGraphModel dx="93" dy="436" grid="1" gridSize="10" guides="1" tooltips="1" connect="1" arrows="1" fold="1" page="1" pageScale="1" pageWidth="640" pageHeight="400" math="0" shadow="0">
      <root>
        <mxCell id="0" />
        <mxCell id="1" parent="0" />
        <mxCell id="_hffcqCJiWzJmwft05rX-1" value="Tor 0" style="strokeColor=#666666;html=1;verticalLabelPosition=bottom;labelBackgroundColor=#ffffff;verticalAlign=top;outlineConnect=0;shadow=0;dashed=0;shape=mxgraph.rackGeneral.rackCabinet3;fillColor2=#f4f4f4;container=1;collapsible=0;childLayout=rack;allowGaps=1;marginLeft=9;marginRight=9;marginTop=21;marginBottom=22;textColor=#666666;numDisp=off;" vertex="1" parent="1">
          <mxGeometry x="1240" y="40" width="180" height="680" as="geometry" />
        </mxCell>
        <mxCell id="_hffcqCJiWzJmwft05rX-2" value="Brocade VDX 6740 48P" style="shape=mxgraph.rack.cisco.cisco_nexus_3016_switch;html=1;labelPosition=right;align=left;spacingLeft=15;dashed=0;shadow=0;fillColor=#ffffff;" vertex="1" parent="_hffcqCJiWzJmwft05rX-1">
          <mxGeometry x="9" y="36" width="162" height="15" as="geometry" />
        </mxCell>
        <mxCell id="_hffcqCJiWzJmwft05rX-3" value="Brocade VDX 6740 48P" style="shape=mxgraph.rack.cisco.cisco_nexus_3016_switch;html=1;labelPosition=right;align=left;spacingLeft=15;dashed=0;shadow=0;fillColor=#ffffff;" vertex="1" parent="_hffcqCJiWzJmwft05rX-1">
          <mxGeometry x="9" y="51" width="162" height="15" as="geometry" />
        </mxCell>
        <mxCell id="_hffcqCJiWzJmwft05rX-4" value="25NZ1G3 -&amp;nbsp;&lt;span style=&quot;background-color: initial;&quot;&gt;ESXi 5&lt;/span&gt;" style="strokeColor=#666666;html=1;labelPosition=right;align=left;spacingLeft=15;shadow=0;dashed=0;outlineConnect=0;shape=mxgraph.rack.dell.poweredge_r640;" vertex="1" parent="_hffcqCJiWzJmwft05rX-1">
          <mxGeometry x="9" y="96" width="162" height="15" as="geometry" />
        </mxCell>
        <mxCell id="_hffcqCJiWzJmwft05rX-5" value="25P12G3 - ESXi 4" style="strokeColor=#666666;html=1;labelPosition=right;align=left;spacingLeft=15;shadow=0;dashed=0;outlineConnect=0;shape=mxgraph.rack.dell.poweredge_r640;" vertex="1" parent="_hffcqCJiWzJmwft05rX-1">
          <mxGeometry x="9" y="126" width="162" height="15" as="geometry" />
        </mxCell>
        <mxCell id="_hffcqCJiWzJmwft05rX-6" value="25N12G3 -&amp;nbsp;&lt;span style=&quot;background-color: initial;&quot;&gt;ESXi 3&lt;/span&gt;" style="strokeColor=#666666;html=1;labelPosition=right;align=left;spacingLeft=15;shadow=0;dashed=0;outlineConnect=0;shape=mxgraph.rack.dell.poweredge_r640;" vertex="1" parent="_hffcqCJiWzJmwft05rX-1">
          <mxGeometry x="9" y="156" width="162" height="15" as="geometry" />
        </mxCell>
        <mxCell id="_hffcqCJiWzJmwft05rX-7" value="25N22G3 - ESXi 2" style="strokeColor=#666666;html=1;labelPosition=right;align=left;spacingLeft=15;shadow=0;dashed=0;outlineConnect=0;shape=mxgraph.rack.dell.poweredge_r640;" vertex="1" parent="_hffcqCJiWzJmwft05rX-1">
          <mxGeometry x="9" y="186" width="162" height="15" as="geometry" />
        </mxCell>
        <mxCell id="_hffcqCJiWzJmwft05rX-8" value="25NX1G3 - ESXi 1" style="strokeColor=#666666;html=1;labelPosition=right;align=left;spacingLeft=15;shadow=0;dashed=0;outlineConnect=0;shape=mxgraph.rack.dell.poweredge_r640;" vertex="1" parent="_hffcqCJiWzJmwft05rX-1">
          <mxGeometry x="9" y="216" width="162" height="15" as="geometry" />
        </mxCell>
        <mxCell id="_hffcqCJiWzJmwft05rX-9" value="25P02G3 - TrueNAS" style="strokeColor=#666666;html=1;labelPosition=right;align=left;spacingLeft=15;shadow=0;dashed=0;outlineConnect=0;shape=mxgraph.rack.dell.poweredge_r640;" vertex="1" parent="_hffcqCJiWzJmwft05rX-1">
          <mxGeometry x="9" y="246" width="162" height="15" as="geometry" />
        </mxCell>
        <mxCell id="_hffcqCJiWzJmwft05rX-10" value="25Q12G3 - ESXi 6" style="strokeColor=#666666;html=1;labelPosition=right;align=left;spacingLeft=15;shadow=0;dashed=0;outlineConnect=0;shape=mxgraph.rack.dell.poweredge_r640;" vertex="1" parent="_hffcqCJiWzJmwft05rX-1">
          <mxGeometry x="9" y="276" width="162" height="15" as="geometry" />
        </mxCell>
        <mxCell id="_hffcqCJiWzJmwft05rX-11" value="25PX1G3 -&amp;nbsp;&lt;span style=&quot;background-color: initial;&quot;&gt;Proxmox 01&lt;/span&gt;" style="strokeColor=#666666;html=1;labelPosition=right;align=left;spacingLeft=15;shadow=0;dashed=0;outlineConnect=0;shape=mxgraph.rack.dell.poweredge_r640;" vertex="1" parent="_hffcqCJiWzJmwft05rX-1">
          <mxGeometry x="9" y="306" width="162" height="15" as="geometry" />
        </mxCell>
        <mxCell id="_hffcqCJiWzJmwft05rX-12" value="25T02G3 - Dell R640" style="strokeColor=#666666;html=1;labelPosition=right;align=left;spacingLeft=15;shadow=0;dashed=0;outlineConnect=0;shape=mxgraph.rack.dell.poweredge_r640;" vertex="1" parent="_hffcqCJiWzJmwft05rX-1">
          <mxGeometry x="9" y="366" width="162" height="15" as="geometry" />
        </mxCell>
        <mxCell id="_hffcqCJiWzJmwft05rX-13" value="25SX1G3 - Dell R640" style="strokeColor=#666666;html=1;labelPosition=right;align=left;spacingLeft=15;shadow=0;dashed=0;outlineConnect=0;shape=mxgraph.rack.dell.poweredge_r640;" vertex="1" parent="_hffcqCJiWzJmwft05rX-1">
          <mxGeometry x="9" y="396" width="162" height="15" as="geometry" />
        </mxCell>
        <mxCell id="_hffcqCJiWzJmwft05rX-14" value="APM00124335445&amp;nbsp;&lt;div&gt;EMC VNXE 3150&lt;/div&gt;" style="strokeColor=#666666;html=1;labelPosition=right;align=left;spacingLeft=15;shadow=0;dashed=0;outlineConnect=0;shape=mxgraph.rack.dell.dell_poweredge_2u;" vertex="1" parent="_hffcqCJiWzJmwft05rX-1">
          <mxGeometry x="9" y="411" width="162" height="30" as="geometry" />
        </mxCell>
        <mxCell id="_hffcqCJiWzJmwft05rX-15" value="APC KVM" style="strokeColor=#666666;html=1;labelPosition=right;align=left;spacingLeft=15;shadow=0;dashed=0;outlineConnect=0;shape=mxgraph.rackGeneral.plate;fillColor=#e8e8e8;" vertex="1" parent="_hffcqCJiWzJmwft05rX-1">
          <mxGeometry x="9" y="336" width="162" height="15" as="geometry" />
        </mxCell>
        <mxCell id="_hffcqCJiWzJmwft05rX-16" value="" style="strokeColor=#666666;html=1;labelPosition=right;align=left;spacingLeft=15;shadow=0;dashed=0;outlineConnect=0;shape=mxgraph.rack.dell.power_strip;" vertex="1" parent="_hffcqCJiWzJmwft05rX-1">
          <mxGeometry x="9" y="441" width="162" height="15" as="geometry" />
        </mxCell>
        <mxCell id="_hffcqCJiWzJmwft05rX-17" value="" style="strokeColor=#666666;html=1;labelPosition=right;align=left;spacingLeft=15;shadow=0;dashed=0;outlineConnect=0;shape=mxgraph.rack.dell.power_strip;" vertex="1" parent="_hffcqCJiWzJmwft05rX-1">
          <mxGeometry x="9" y="456" width="162" height="15" as="geometry" />
        </mxCell>
        <mxCell id="_hffcqCJiWzJmwft05rX-18" value="" style="shape=mxgraph.rack.ibm.ibm_3000va_ups;html=1;labelPosition=right;align=left;spacingLeft=15;dashed=0;shadow=0;fillColor=#ffffff;" vertex="1" parent="_hffcqCJiWzJmwft05rX-1">
          <mxGeometry x="9" y="471" width="162" height="45" as="geometry" />
        </mxCell>
        <mxCell id="_hffcqCJiWzJmwft05rX-19" value="" style="shape=mxgraph.rack.ibm.ibm_3000va_ups;html=1;labelPosition=right;align=left;spacingLeft=15;dashed=0;shadow=0;fillColor=#ffffff;" vertex="1" parent="_hffcqCJiWzJmwft05rX-1">
          <mxGeometry x="9" y="516" width="162" height="45" as="geometry" />
        </mxCell>
        <mxCell id="_hffcqCJiWzJmwft05rX-20" value="" style="shape=mxgraph.rack.ibm.ibm_3000va_ups;html=1;labelPosition=right;align=left;spacingLeft=15;dashed=0;shadow=0;fillColor=#ffffff;" vertex="1" parent="_hffcqCJiWzJmwft05rX-1">
          <mxGeometry x="9" y="561" width="162" height="45" as="geometry" />
        </mxCell>
        <mxCell id="_hffcqCJiWzJmwft05rX-21" value="&lt;div&gt;APC UPS&amp;nbsp;&lt;span style=&quot;background-color: initial;&quot;&gt;SRT5KXLT&lt;/span&gt;&lt;/div&gt;" style="shape=mxgraph.rack.apc.apc_smart_ups_1000-3000_va_2u;html=1;labelPosition=right;align=left;spacingLeft=15;dashed=0;shadow=0;fillColor=#ffffff;" vertex="1" parent="_hffcqCJiWzJmwft05rX-1">
          <mxGeometry x="9" y="606" width="162" height="45" as="geometry" />
        </mxCell>
      </root>
    </mxGraphModel>
  </diagram>
</mxfile>
